<svg xmlns="http://www.w3.org/2000/svg" version="1.1" xmlns:xlink="http://www.w3.org/1999/xlink" xmlns:svgjs="http://svgjs.dev/svgjs" width="1440" height="560" preserveAspectRatio="none" viewBox="0 0 1440 560"><g mask="url(&quot;#SvgjsMask1012&quot;)" fill="none"><rect width="1440" height="560" x="0" y="0" fill="rgba(160, 14, 7, 1)"></rect><path d="M0,510.637C102.227,522.679,214.052,523.399,299.164,465.508C383.699,408.01,407.19,298.348,449.164,205.126C490.899,112.436,556.26,22.696,543.981,-78.213C531.628,-179.727,462.672,-267.493,383.741,-332.513C311.552,-391.979,215.463,-402.299,124.443,-423.813C38.413,-444.148,-45.667,-464.468,-133.536,-454.782C-235.134,-443.583,-362.999,-448.748,-419.862,-363.812C-477.976,-277.007,-383.052,-160.598,-399.543,-57.446C-416.468,48.423,-547.559,133.139,-515.674,235.501C-484.662,335.06,-349.058,350.901,-257.057,399.988C-173.051,444.809,-94.561,499.498,0,510.637" fill="#820b06"></path><path d="M1440 912.9449999999999C1512.154 922.0350000000001 1589.363 926.725 1652.604 890.818 1717.084 854.2080000000001 1752.132 784.038 1784.519 717.337 1817.567 649.275 1844.091 577.917 1841.248 502.30899999999997 1838.205 421.38300000000004 1822.325 335.842 1767.9180000000001 275.858 1713.8980000000001 216.301 1630.557 193.351 1550.924 182.226 1478.609 172.123 1410.512 201.31900000000002 1338.972 215.93099999999998 1259.807 232.101 1169.317 219.601 1108.35 272.624 1045.437 327.34000000000003 1013.8199999999999 415.345 1013.81 498.723 1013.8 577.926 1062.164 647.103 1108.295 711.485 1147.742 766.538 1201.358 806.102 1259.245 841.26 1315.79 875.6030000000001 1374.362 904.675 1440 912.9449999999999" fill="#be1108"></path></g><defs><mask id="SvgjsMask1012"><rect width="1440" height="560" fill="#ffffff"></rect></mask></defs></svg>